# xmcd
#
# Track frame offsets:
#	150
#	17937
#	38254
#	57208
#	78374
#	96035
#	115252
#	136858
#	154208
#	181105
#	197682
#	215244
#	241951
#	257883
#	283754
#	305582
#	321689
#
# Disc length: 4475 seconds
#
# Revision: 1
# Processed by: cddbd v1.5.2PL0 Copyright (c) Steve Scherf et al.
# Submitted via: audiograbber 1.83.01
#
DISCID=f2117911
DTITLE=Varius - 200% Hits
DYEAR=1900
DGENRE=
TTITLE0=Tarkan - Simaric
TTITLE1=Harun Kolcak - Olurum Elinde
TTITLE2=Alabina - Loli, Lolita, Lola
TTITLE3=Mustafa Sandal - Araba
TTITLE4=Reyhan Karaca - Sevdikb Sevdalander
TTITLE5=Cheb Mami - Haoulou
TTITLE6=4 Cats - Ya Nassini
TTITLE7=Emrah - Harin Yarim
TTITLE8=Alabina - Salma Ya Salma
TTITLE9=Miryah - Ouah Dani
TTITLE10=Tarkan - Hepsi Sinin Mi
TTITLE11=Wael Kfoury - Magrura
TTITLE12=Harum Kfoury - Benim Meselem
TTITLE13=Katia Harb - Bayani
TTITLE14=Mustafa Sandal - Cekilin
TTITLE15=Celik - Yaman Sevda
TTITLE16=Miryah - Sidi Mansour
EXTD=
EXTT0=
EXTT1=
EXTT2=
EXTT3=
EXTT4=
EXTT5=
EXTT6=
EXTT7=
EXTT8=
EXTT9=
EXTT10=
EXTT11=
EXTT12=
EXTT13=
EXTT14=
EXTT15=
EXTT16=
PLAYORDER=
